<?xml version="1.0" encoding="iso-8859-1"?>
<!-- Generator: Adobe Illustrator 19.0.0, SVG Export Plug-In . SVG Version: 6.00 Build 0)  -->
<svg version="1.1" id="Capa_1" xmlns="http://www.w3.org/2000/svg" xmlns:xlink="http://www.w3.org/1999/xlink" x="0px" y="0px"
	 viewBox="0 0 397 397" style="enable-background:new 0 0 397 397;" xml:space="preserve">
<rect x="10.3" y="29.5" style="fill:#ED664C;" width="377.4" height="41.9"/>
<polygon style="fill:#FDC75B;" points="111,238.9 199,131.7 287,238.9 199,238.9 "/>
<path d="M206.7,125.3c-1.9-2.3-4.7-3.6-7.7-3.6s-5.8,1.4-7.7,3.7l-88,107.2c-2.5,3-3,6.9-1.3,10.4s5.2,5.5,9,5.5h78v119
	c0,5.5,4.5,10,10,10s10-4.5,10-10v-119h78c3.9,0,7.4-2,9-5.5c1.7-3.5,1.1-7.5-1.3-10.5L206.7,125.3z M132.1,228.5l66.9-81.4
	l66.9,81.4H132.1z"/>
<path d="M387,19.5H10c-5.5,0-10,4.5-10,10v42c0,5.5,4.5,10,10,10h377c5.5,0,10-4.5,10-10v-42C397,24,392.5,19.5,387,19.5z M378,61.5
	H20v-22h358V61.5z"/>
<g>
</g>
<g>
</g>
<g>
</g>
<g>
</g>
<g>
</g>
<g>
</g>
<g>
</g>
<g>
</g>
<g>
</g>
<g>
</g>
<g>
</g>
<g>
</g>
<g>
</g>
<g>
</g>
<g>
</g>
</svg>
